<svg width="300" height="300" viewBox="0 0 300 300" fill="none" xmlns="http://www.w3.org/2000/svg">
<circle cx="150" cy="150" r="150" fill="#EEEFF1"/>
<path d="M155 72C155 70.8954 155.895 70 157 70H224.444C227.513 70 230 72.4873 230 75.5556V75.5556C230 113.909 198.909 145 160.556 145V145C157.487 145 155 142.513 155 139.444V72Z" fill="#6886C5"/>
<path d="M70 72C70 70.8954 70.8954 70 72 70H139.444C142.513 70 145 72.4873 145 75.5556V75.5556C145 113.909 113.909 145 75.5556 145V145C72.4873 145 70 142.513 70 139.444V72Z" fill="#91E1DB"/>
<path d="M155 160.556C155 157.487 157.487 155 160.556 155V155C198.909 155 230 186.091 230 224.444V224.444C230 227.513 227.513 230 224.444 230H157C155.895 230 155 229.105 155 228V160.556Z" fill="#FCD395"/>
<path d="M70 160.556C70 157.487 72.4873 155 75.5556 155V155C113.909 155 145 186.091 145 224.444V224.444C145 227.513 142.513 230 139.444 230H72C70.8954 230 70 229.105 70 228V160.556Z" fill="#FFACB7"/>
</svg>
